<svg viewBox="0 0 12 10.5815" xmlns="http://www.w3.org/2000/svg" xmlns:xlink="http://www.w3.org/1999/xlink" width="12.000000" height="10.581543" fill="none" customFrame="#000000">
	<path id="矢量 7" d="M10.843 0L1.15704 0C0.518043 0 0 0.518029 0 1.15704L0 8.53319C0 9.13286 0.456284 9.62608 1.04058 9.68445C1.07889 9.6883 1.1177 9.69024 1.15704 9.69024L1.46615 9.69024C1.46615 9.86749 1.46615 10.3283 1.46615 10.3308C1.46615 10.6073 1.73021 10.6334 1.91254 10.5143C2.07744 10.4066 2.24358 10.3011 2.41296 10.2006C2.74678 10.0028 3.13388 9.7641 3.52755 9.69024L4.79341 9.69024L10.843 9.69024C11.4819 9.69024 12 9.17221 12 8.53319L12 1.15704C12 0.51803 11.4819 0 10.843 0ZM2.45595 5.46417C2.00604 5.46417 1.64131 5.09948 1.64131 4.64957C1.64131 4.19966 2.00602 3.83493 2.45595 3.83493C2.90588 3.83493 3.27056 4.19964 3.27056 4.64957C3.27056 5.0995 2.90588 5.46417 2.45595 5.46417ZM6.03816 5.46417C5.58825 5.46417 5.22352 5.09948 5.22352 4.64957C5.22352 4.19966 5.58823 3.83493 6.03816 3.83493C6.48805 3.83493 6.85277 4.19964 6.85277 4.64957C6.85277 5.0995 6.48805 5.46417 6.03816 5.46417ZM9.54403 5.46417C9.09412 5.46417 8.72936 5.09948 8.72936 4.64957C8.72936 4.19966 9.09412 3.83493 9.54403 3.83493C9.99395 3.83493 10.3587 4.19964 10.3587 4.64957C10.3587 5.0995 9.99396 5.46417 9.54403 5.46417Z" fill="rgb(255,255,255)" fill-rule="nonzero" />
	<path id="矢量 7" d="M1.15704 0L10.843 0C11.4819 0 12 0.51803 12 1.15704L12 8.53319C12 9.17221 11.4819 9.69024 10.843 9.69024L3.52755 9.69024C3.13388 9.7641 2.74678 10.0028 2.41296 10.2006C2.24358 10.3011 2.07744 10.4066 1.91254 10.5143C1.73021 10.6334 1.46615 10.6073 1.46615 10.3308L1.46615 9.69024L1.15704 9.69024C1.1177 9.69024 1.07889 9.6883 1.04058 9.68445C0.456284 9.62608 0 9.13286 0 8.53319L0 1.15704C0 0.518029 0.518043 0 1.15704 0ZM10.843 1L1.15704 1C1.07031 1 1 1.07031 1 1.15704L1 3.56625C1.3308 3.12238 1.8598 2.83492 2.45595 2.8349C3.35847 2.8349 4.107 3.4937 4.24704 4.35666C4.38707 3.49372 5.13567 2.83492 6.03816 2.8349C6.87748 2.8349 7.58367 3.40475 7.79106 4.17865C7.99846 3.40476 8.70472 2.83494 9.54403 2.83493C10.1402 2.83493 10.6692 3.12239 11 3.56627L11 1.15704C11 1.07031 10.9297 1 10.843 1ZM1.64131 4.64957C1.64131 5.09948 2.00604 5.46417 2.45595 5.46417C2.90588 5.46417 3.27056 5.0995 3.27056 4.64957C3.27056 4.19964 2.90588 3.83493 2.45595 3.83493C2.00602 3.83493 1.64131 4.19966 1.64131 4.64957ZM5.22352 4.64957C5.22352 5.09948 5.58825 5.46417 6.03816 5.46417C6.48805 5.46417 6.85277 5.0995 6.85277 4.64957C6.85277 4.19964 6.48805 3.83493 6.03816 3.83493C5.58823 3.83493 5.22352 4.19966 5.22352 4.64957ZM8.72936 4.64957C8.72936 5.09948 9.09412 5.46417 9.54403 5.46417C9.99396 5.46417 10.3587 5.0995 10.3587 4.64957C10.3587 4.19964 9.99395 3.83493 9.54403 3.83493C9.09412 3.83493 8.72936 4.19966 8.72936 4.64957ZM1 5.73287L1 8.53319Q1 8.60517 1.03585 8.6443Q1.07085 8.6825 1.13999 8.6894C1.14552 8.68996 1.15121 8.69024 1.15704 8.69024L2.46615 8.69024L2.46615 9.02901C2.8035 8.86099 3.09584 8.75379 3.34315 8.70739L3.43455 8.69024L10.843 8.69024C10.9297 8.69024 11 8.61992 11 8.53319L11 5.73289C10.6692 6.17673 10.1402 6.46415 9.54403 6.46415L9.54403 6.46413C8.70472 6.46413 7.99846 5.89439 7.79106 5.12053C7.58367 5.8944 6.87748 6.46417 6.03816 6.46417L6.03816 6.46415C5.13568 6.46415 4.38708 5.80542 4.24704 4.94252C4.107 5.80546 3.35847 6.46417 2.45595 6.46417L2.45595 6.46415C1.85981 6.46415 1.3308 6.17672 1 5.73287Z" fill="rgb(24,34,25)" fill-opacity="0" fill-rule="evenodd" />
</svg>
